<?xml version="1.0" encoding="UTF-8" standalone="no"?>
<svg
   xmlns:dc="http://purl.org/dc/elements/1.1/"
   xmlns:cc="http://creativecommons.org/ns#"
   xmlns:rdf="http://www.w3.org/1999/02/22-rdf-syntax-ns#"
   xmlns:svg="http://www.w3.org/2000/svg"
   xmlns="http://www.w3.org/2000/svg"
   xmlns:xlink="http://www.w3.org/1999/xlink"
   id="svg54"
   version="1.1"
   viewBox="0 0 16 16"
   height="16"
   width="16">
  <metadata
     id="metadata58">
    <rdf:RDF>
      <cc:Work
         rdf:about="">
        <dc:format>image/svg+xml</dc:format>
        <dc:type
           rdf:resource="http://purl.org/dc/dcmitype/StillImage" />
        <dc:title></dc:title>
      </cc:Work>
    </rdf:RDF>
  </metadata>
  <defs
     id="defs26">
    <linearGradient
       gradientUnits="userSpaceOnUse"
       gradientTransform="scale(0.82859349,1.2068644)"
       y2="31.344723"
       y1="43.086861"
       x2="9.4049253"
       x1="16.920649"
       id="idea-ce-b">
      <stop
         id="stop2"
         stop-color="#2773E7"
         offset="0%" />
      <stop
         id="stop4"
         stop-color="#FC801D"
         offset="100%" />
    </linearGradient>
    <polygon
       points="0,18.5 0,52 14.5,49 23,24.5 "
       id="idea-ce-a" />
    <linearGradient
       gradientUnits="userSpaceOnUse"
       gradientTransform="scale(0.91123934,1.0974065)"
       y2="54.5341"
       y1="15.573152"
       x2="13.679962"
       x1="28.723429"
       id="idea-ce-c">
      <stop
         id="stop8"
         stop-color="#FE2857"
         offset="0%" />
      <stop
         id="stop10"
         stop-color="#9039D0"
         offset="100%" />
    </linearGradient>
    <linearGradient
       gradientUnits="userSpaceOnUse"
       gradientTransform="scale(1.0251085,0.97550649)"
       y2="22.740704"
       y1="0"
       x2="39.508015"
       x1="39.508015"
       id="idea-ce-d">
      <stop
         id="stop13"
         stop-color="#2773E7"
         offset="0%" />
      <stop
         id="stop15"
         stop-color="#9039D0"
         offset="100%" />
    </linearGradient>
    <linearGradient
       gradientUnits="userSpaceOnUse"
       y2="24.235601"
       y1="-4.6472001"
       x2="20"
       x1="20"
       id="idea-ce-f">
      <stop
         id="stop18"
         stop-color="#A6A5A5"
         offset="0%" />
      <stop
         id="stop20"
         stop-opacity=".568"
         stop-color="#989898"
         offset="0%" />
      <stop
         id="stop22"
         offset="100%" />
    </linearGradient>
    <polygon
       points="0,0 0,40 40,40 40,0 "
       id="idea-ce-e" />
  </defs>
  <rect
     x="97.654236"
     y="-25.822035"
     style="fill:#ffffff"
     width="16.200001"
     height="2.7"
     id="rect31" />
  <g
     id="g147"
     transform="matrix(0.28571429,0,0,0.28571429,-1.1428571,-1.1428571)">
    <g
       style="fill:none;fill-rule:evenodd"
       id="g38"
       transform="translate(4,4)">
      <use
         height="100%"
         width="100%"
         y="0"
         x="0"
         style="fill:#f97a12"
         id="use28"
         xlink:href="#idea-ce-a" />
      <use
         height="100%"
         width="100%"
         y="0"
         x="0"
         style="fill:url(#idea-ce-b)"
         id="use30"
         xlink:href="#idea-ce-a" />
      <polygon
         style="fill:#2773e7"
         id="polygon32"
         points="56,56 56,43 56,0 24.5,0 9.5,56 " />
      <polygon
         style="fill:url(#idea-ce-c)"
         id="polygon34"
         points="46.5,24 25.5,0 0,0 0,21 10.5,27.5 0,48.5 0,56 12.5,56 24,50 " />
      <polygon
         style="fill:url(#idea-ce-d)"
         id="polygon36"
         points="40.5,29.5 56,15 56,0 25,0 " />
    </g>
    <g
       style="fill:none;fill-rule:evenodd"
       id="g46"
       transform="translate(12,12)">
      <use
         height="100%"
         width="100%"
         y="0"
         x="0"
         style="fill:#000000"
         id="use40"
         xlink:href="#idea-ce-e" />
      <use
         height="100%"
         width="100%"
         y="0"
         x="0"
         style="fill:url(#idea-ce-f)"
         id="use42"
         xlink:href="#idea-ce-e" />
      <polygon
         style="fill:#ffffff"
         id="polygon44"
         points="4,35 19,35 19,32.5 4,32.5 " />
    </g>
    <polygon
       style="fill:#ffffff;fill-rule:evenodd"
       id="polygon50"
       points="18.244,30.825 16,30.825 16,34 24,34 24,30.825 21.756,30.825 21.756,20.072 24,20.072 24,17 16,17 16,20.072 18.244,20.072 "
       transform="translate(0,0.581355)" />
    <path
       id="path35"
       d="m 27.450852,26.172753 v 0 c 0,-4.752688 3.524096,-8.591398 8.493976,-8.591398 3.072289,0 4.879518,1.005376 6.415663,2.55914 l -2.259037,2.650537 c -1.26506,-1.188172 -2.53012,-1.827957 -4.156626,-1.827957 -2.710843,0 -4.698795,2.284947 -4.698795,5.11828 v 0 c 0,2.833333 1.89759,5.209677 4.698795,5.209677 1.89759,0 2.981928,-0.731182 4.246988,-1.919354 l 2.259036,2.284946 c -1.716867,1.827957 -3.524096,2.924731 -6.686747,2.924731 -4.789157,0 -8.313253,-3.747312 -8.313253,-8.408602"
       style="fill:#ffffff;stroke-width:0.90878171" />
  </g>
</svg>
